<svg id="Group_26826" data-name="Group 26826" xmlns="http://www.w3.org/2000/svg" width="58.198" height="58.197" viewBox="0 0 58.198 58.197">
  <path id="Path_4" data-name="Path 4" d="M3.182,59.013a4.03,4.03,0,0,1,0-5.7l8.552-8.549-5.7-5.7a4.033,4.033,0,1,1,5.7-5.7l17.1,17.106a4.033,4.033,0,0,1-5.7,5.7l-5.7-5.7L8.882,59.016a4.03,4.03,0,0,1-5.7,0ZM57.286,2H50a2.909,2.909,0,0,0-2.057.852L18.7,32.1,30.1,43.5,59.346,14.253A2.91,2.91,0,0,0,60.2,12.2V4.91A2.91,2.91,0,0,0,57.286,2ZM50.462,44.761l5.7-5.7a4.033,4.033,0,0,0-5.7-5.7l-17.1,17.106a4.033,4.033,0,0,0,5.7,5.7l5.7-5.7,8.552,8.555a4.033,4.033,0,0,0,5.7-5.7ZM12.2,2H4.91A2.91,2.91,0,0,0,2,4.91V12.2a2.909,2.909,0,0,0,.852,2.057L15.583,26.983l11.4-11.4L14.256,2.853A2.91,2.91,0,0,0,12.2,2Z" transform="translate(-2 -2)" fill="#ef8100"/>
</svg>
