<svg xmlns="http://www.w3.org/2000/svg" width="34.782" height="26.468" viewBox="0 0 34.782 26.468">
  <path id="Icon_awesome-vote-yea" data-name="Icon awesome-vote-yea" d="M33.043,19.265H29.564v3.781h1.217a.5.5,0,0,1,.522.473v.945a.5.5,0,0,1-.522.473H4a.5.5,0,0,1-.522-.473v-.945A.5.5,0,0,1,4,23.046H5.217V19.265H1.739A1.818,1.818,0,0,0,0,21.156v5.672a1.818,1.818,0,0,0,1.739,1.891h31.3a1.818,1.818,0,0,0,1.739-1.891V21.156A1.818,1.818,0,0,0,33.043,19.265Zm-5.217,3.781V4.158A1.836,1.836,0,0,0,26.07,2.25H8.717A1.84,1.84,0,0,0,6.956,4.158V23.046ZM11.478,12.294,12.864,10.8a.547.547,0,0,1,.826.006l2.245,2.458,5.174-5.577a.547.547,0,0,1,.826.006L23.309,9.2a.669.669,0,0,1-.005.9l-6.973,7.515a.547.547,0,0,1-.826-.006l-4.027-4.413A.669.669,0,0,1,11.478,12.294Z" transform="translate(0 -2.25)" fill="#fff"/>
</svg>
