<svg xmlns="http://www.w3.org/2000/svg" width="34.57" height="24.196" viewBox="0 0 34.57 24.196">
  <path id="Icon_awesome-users-cog" data-name="Icon awesome-users-cog" d="M32.98,18.96a6.337,6.337,0,0,0,0-2.3l1.394-.8a.391.391,0,0,0,.178-.459,8.107,8.107,0,0,0-1.793-3.1.394.394,0,0,0-.486-.076l-1.394.8a6.342,6.342,0,0,0-1.993-1.151v-1.61a.393.393,0,0,0-.308-.384,8.151,8.151,0,0,0-3.576,0,.393.393,0,0,0-.308.384v1.61A6.342,6.342,0,0,0,22.7,13.023l-1.394-.8a.4.4,0,0,0-.486.076,8.107,8.107,0,0,0-1.793,3.1.4.4,0,0,0,.178.459l1.394.8a6.337,6.337,0,0,0,0,2.3l-1.394.8a.391.391,0,0,0-.178.459,8.147,8.147,0,0,0,1.793,3.1.394.394,0,0,0,.486.076l1.394-.8a6.342,6.342,0,0,0,1.993,1.151v1.61A.393.393,0,0,0,25,25.74a8.15,8.15,0,0,0,3.576,0,.393.393,0,0,0,.308-.384v-1.61A6.342,6.342,0,0,0,30.878,22.6l1.394.8a.4.4,0,0,0,.486-.076,8.107,8.107,0,0,0,1.793-3.1.4.4,0,0,0-.178-.459l-1.394-.8ZM26.794,20.43a2.62,2.62,0,1,1,2.62-2.62A2.622,2.622,0,0,1,26.794,20.43ZM5.186,12.624A3.457,3.457,0,1,0,1.729,9.166,3.461,3.461,0,0,0,5.186,12.624Zm12.1,1.729c.1,0,.2-.027.3-.032a9.959,9.959,0,0,1,1.961-3.2,2.129,2.129,0,0,1,1.561-.681,2.076,2.076,0,0,1,1.059.286l.427.248c.043-.027.086-.049.13-.076a5.979,5.979,0,0,0,.605-2.593,6.048,6.048,0,1,0-6.045,6.045ZM22.97,24.859c-.124-.065-.248-.14-.367-.211a2.669,2.669,0,0,1-1.486.529,2.147,2.147,0,0,1-1.561-.681,9.85,9.85,0,0,1-2.172-3.76,2.305,2.305,0,0,1,1.394-2.717q-.008-.211,0-.421l-.427-.248a2.2,2.2,0,0,1-.529-.438c-.178.011-.351.032-.529.032a8.528,8.528,0,0,1-3.7-.864h-.448A6.226,6.226,0,0,0,6.915,22.3V23.86a2.594,2.594,0,0,0,2.593,2.593H23.3a2.08,2.08,0,0,1-.335-1.1v-.5Zm-13.619-9.5a3.447,3.447,0,0,0-2.436-1H3.457A3.461,3.461,0,0,0,0,17.81v1.729a1.727,1.727,0,0,0,1.729,1.729h3.56a7.922,7.922,0,0,1,4.062-5.91Z" transform="translate(0 -2.257)" fill="#fff"/>
</svg>
