<svg xmlns="http://www.w3.org/2000/svg" width="20.581" height="27.441" viewBox="0 0 20.581 27.441">
  <path id="Icon_awesome-id-badge" data-name="Icon awesome-id-badge" d="M18.008,0H2.573A2.573,2.573,0,0,0,0,2.573v22.3a2.573,2.573,0,0,0,2.573,2.573H18.008a2.573,2.573,0,0,0,2.573-2.573V2.573A2.573,2.573,0,0,0,18.008,0ZM7.718,1.715h5.145a.858.858,0,0,1,0,1.715H7.718a.858.858,0,1,1,0-1.715Zm2.573,6.86a3.43,3.43,0,1,1-3.43,3.43A3.433,3.433,0,0,1,10.29,8.575Zm6,12.691a1.124,1.124,0,0,1-1.2,1.029h-9.6a1.124,1.124,0,0,1-1.2-1.029V20.238a3.375,3.375,0,0,1,3.6-3.087h.268a5.521,5.521,0,0,0,4.266,0h.268a3.375,3.375,0,0,1,3.6,3.087Z" fill="#fff"/>
</svg>
