<svg xmlns="http://www.w3.org/2000/svg" width="34.685" height="24.28" viewBox="0 0 34.685 24.28">
  <path id="Icon_awesome-users" data-name="Icon awesome-users" d="M5.2,12.656A3.469,3.469,0,1,0,1.734,9.187,3.472,3.472,0,0,0,5.2,12.656Zm24.28,0a3.469,3.469,0,1,0-3.469-3.469A3.472,3.472,0,0,0,29.483,12.656Zm1.734,1.734H27.748A3.458,3.458,0,0,0,25.3,15.4a7.927,7.927,0,0,1,4.07,5.929h3.577a1.732,1.732,0,0,0,1.734-1.734V17.858A3.472,3.472,0,0,0,31.217,14.39Zm-13.874,0a6.07,6.07,0,1,0-6.07-6.07A6.067,6.067,0,0,0,17.343,14.39ZM21.5,16.124h-.45a8.38,8.38,0,0,1-7.425,0h-.45a6.245,6.245,0,0,0-6.243,6.243v1.561a2.6,2.6,0,0,0,2.6,2.6H25.147a2.6,2.6,0,0,0,2.6-2.6V22.368A6.245,6.245,0,0,0,21.5,16.124ZM9.381,15.4A3.458,3.458,0,0,0,6.937,14.39H3.469A3.472,3.472,0,0,0,0,17.858v1.734a1.732,1.732,0,0,0,1.734,1.734H5.306A7.947,7.947,0,0,1,9.381,15.4Z" transform="translate(0 -2.25)" fill="#fff"/>
</svg>
