<svg xmlns="http://www.w3.org/2000/svg" width="44.0" height="44.0" viewBox="0 0 28.789 26.742">
  <g id="Group_2420" data-name="Group 2420" transform="translate(487.05 -189.5)">
    <g id="Group_2420-2" data-name="Group 2420" transform="translate(-486.348 190)">
      <circle id="Ellipse_574" data-name="Ellipse 574" cx="13.121" cy="13.121" r="13.121" transform="translate(1.27 0)" fill="#ff6161"/>
      <path id="Path_8385" data-name="Path 8385" d="M205.116,342.376s-1.8,4.392,0,5.034,2.658-2.142,3.407-1.5.964,3,1.928,3.213a57.3,57.3,0,0,0,6.105,0S212.106,342.376,205.116,342.376Z" transform="translate(-190.345 -342.376)" fill="none" stroke="#fff" stroke-miterlimit="10" stroke-width="1"/>
      <path id="Path_8386" data-name="Path 8386" d="M2.411,8.031S4.971,6.312,4.435,5.278s-2.033.163-2.1-.473.781-2.006.442-2.489A28.579,28.579,0,0,0,.081,0S-.671,5.378,2.411,8.031Z" transform="translate(1.943 8.892) rotate(14)" fill="none" stroke="#fff" stroke-miterlimit="10" stroke-width="1"/>
      <path id="Path_8387" data-name="Path 8387" d="M229.585,369.2h-5.526s-.691,1.589,0,2.163c.864.315,1.037-.487,1.641,0s-.657,1.956.968,2.3a5.691,5.691,0,0,0,3.2-.394A9.751,9.751,0,0,0,229.585,369.2Z" transform="translate(-202.409 -359.023)" fill="none" stroke="#fff" stroke-miterlimit="10" stroke-width="1"/>
      <path id="Path_8388" data-name="Path 8388" d="M194.971,367h-5.526s-.691-1.327,0-1.806c.864-.263,1.037.407,1.642,0s-.657-1.634.967-1.922a6.7,6.7,0,0,1,3.2.329A6.842,6.842,0,0,1,194.971,367Z" transform="translate(-180.926 -355.295)" fill="none" stroke="#fff" stroke-miterlimit="10" stroke-width="1"/>
    </g>
    <path id="Intersection_10" data-name="Intersection 10" d="M3.411,9.43a3.074,3.074,0,0,1,3.037-2.6h.221a4.124,4.124,0,0,0,3.654,0h.222a3.075,3.075,0,0,1,3.041,2.628,13.081,13.081,0,0,1-5.056,1.009A13.079,13.079,0,0,1,3.411,9.43Zm9-2.959a1.7,1.7,0,0,1,1.2-.5h1.707A1.71,1.71,0,0,1,17,7.364,13.131,13.131,0,0,1,14.368,9.1,3.9,3.9,0,0,0,12.414,6.471ZM0,7.316A1.71,1.71,0,0,1,1.668,5.975H3.375a1.7,1.7,0,0,1,1.2.5,3.915,3.915,0,0,0-1.949,2.6A13.144,13.144,0,0,1,0,7.316ZM5.508,2.987A2.987,2.987,0,1,1,8.5,5.975,2.986,2.986,0,0,1,5.508,2.987Zm7.255.427A1.707,1.707,0,1,1,14.47,5.121,1.709,1.709,0,0,1,12.763,3.414Zm-11.949,0A1.707,1.707,0,1,1,2.521,5.121,1.709,1.709,0,0,1,.814,3.414Z" transform="translate(-480.486 205.776)" fill="#fff"/>
  </g>
</svg>
