<svg id="Group_26827" data-name="Group 26827" xmlns="http://www.w3.org/2000/svg" width="58.198" height="58.197" viewBox="0 0 58.198 58.197">
  <path id="Path_7" data-name="Path 7" d="M51.27,27.713H47.113V16.628a5.541,5.541,0,0,0-5.543-5.543H30.485V6.928a6.928,6.928,0,0,0-13.857,0v4.157H5.543A5.518,5.518,0,0,0,.028,16.628L.014,27.159H4.157a7.483,7.483,0,1,1,0,14.965H.014L0,52.655A5.541,5.541,0,0,0,5.543,58.2H16.074V54.041a7.483,7.483,0,0,1,14.965,0V58.2H41.57a5.541,5.541,0,0,0,5.543-5.543V41.57H51.27a6.928,6.928,0,0,0,0-13.857Z" transform="translate(0 0)" fill="#ff2727"/>
</svg>
