<svg xmlns="http://www.w3.org/2000/svg" width="44.981" height="44.974" viewBox="0 0 44.981 44.974">
  <g id="Group_2269" data-name="Group 2269" transform="translate(-1397.724 -609.958)">
    <g id="PERFORMANE" transform="translate(1397.724 609.958)">
      <path id="Path_8332" data-name="Path 8332" d="M31.962,108.33c.123.009.2.019.273.019h4.987V91.391c0-.812.213-1.025,1.021-1.025q2.768,0,5.537,0c.708,0,.946.241.946.961q0,8.2,0,16.392v.612H50.7v1.494H5.72v-1.459h5.974v-.527q0-3.021,0-6.042c0-.689.243-.938.92-.938q2.839,0,5.677,0c.653,0,.9.253.906.906,0,2.169,0,4.34,0,6.548h5.259V96.592c0-.749.229-.981.971-.982q2.792,0,5.583,0c.712,0,.95.239.95.957q0,5.573,0,11.147C31.962,107.9,31.962,108.087,31.962,108.33Zm6.791-16.45v16.431H43.2V91.88ZM25.988,97.125v11.185h4.45V97.125Zm-8.321,11.2v-5.94H13.216v5.94Z" transform="translate(-5.72 -80.606)" fill="#ea544e"/>
      <path id="Path_8333" data-name="Path 8333" d="M74.469,257.97a3.146,3.146,0,0,1-.175,2.075,3.241,3.241,0,0,1-.952.919.658.658,0,0,0-.319.932c.319.744.638,1.489.935,2.242a.6.6,0,0,0,.854.392,2.073,2.073,0,0,1,2.323.657c.422.459.868.9,1.329,1.32a2.051,2.051,0,0,1,.649,2.322.576.576,0,0,0,.372.819c.778.322,1.554.648,2.334.962a.57.57,0,0,0,.813-.308,2.06,2.06,0,0,1,2.142-1.191c.639.033,1.281.019,1.922,0a2.018,2.018,0,0,1,2.023,1.158.617.617,0,0,0,.912.343c.746-.319,1.5-.61,2.251-.922.469-.2.553-.384.405-.878a2.062,2.062,0,0,1,.613-2.251c.488-.46.958-.94,1.421-1.425a2.064,2.064,0,0,1,2.213-.615c.563.161.713.094.94-.443.315-.746.619-1.5.938-2.239a.519.519,0,0,0-.245-.752,2.172,2.172,0,0,1-1.275-2.417c.02-.2,0-.4,0-.644h1.49a5.431,5.431,0,0,0,.016,1.021,1,1,0,0,0,.374.623,2.085,2.085,0,0,1,.973,2.895q-.443,1.081-.893,2.158A2.047,2.047,0,0,1,96.2,266a.714.714,0,0,0-.8.2q-.747.743-1.531,1.445a.68.68,0,0,0-.223.787,2.039,2.039,0,0,1-1.3,2.673c-.762.319-1.525.637-2.293.942a1.963,1.963,0,0,1-2.618-.952.754.754,0,0,0-.774-.467c-.639.02-1.281.02-1.92,0a.739.739,0,0,0-.757.42,2.031,2.031,0,0,1-2.784.954c-.722-.294-1.441-.6-2.162-.893a2.046,2.046,0,0,1-1.339-2.692.7.7,0,0,0-.213-.756q-.739-.717-1.452-1.46a.693.693,0,0,0-.756-.215,2.05,2.05,0,0,1-2.729-1.344c-.306-.733-.613-1.465-.91-2.2a2,2,0,0,1,.948-2.7.674.674,0,0,0,.413-.789,8.643,8.643,0,0,1-.054-.971C73.463,257.97,73.938,257.97,74.469,257.97Z" transform="translate(-63.228 -227.242)" fill="#ea544e"/>
      <path id="Path_8334" data-name="Path 8334" d="M32.14,28.6l34.913-13.98-2.53-.758c.144-.5.281-.986.432-1.512,1.583.49,3.129.957,4.666,1.454a.7.7,0,0,1,.419,1c-.771,1.421-1.576,2.824-2.387,4.266l-1.317-.759c.41-.737.809-1.455,1.277-2.294L32.712,30Z" transform="translate(-28.835 -12.35)" fill="#ea544e"/>
      <path id="Path_8335" data-name="Path 8335" d="M134.616,258.26h1.465a8.27,8.27,0,0,1-12.03,7.3,8.045,8.045,0,0,1-4.475-7.287h1.466a6.778,6.778,0,0,0,2.745,5.359,6.549,6.549,0,0,0,4.248,1.337A6.837,6.837,0,0,0,134.616,258.26Z" transform="translate(-105.327 -227.496)" fill="#ea544e"/>
    </g>
    <rect id="Rectangle_1000" data-name="Rectangle 1000" width="5" height="18" transform="translate(1430.215 620.218)" fill="#ea544e"/>
    <rect id="Rectangle_1001" data-name="Rectangle 1001" width="6" height="12" transform="translate(1417.215 626.218)" fill="#ea544e"/>
    <rect id="Rectangle_1002" data-name="Rectangle 1002" width="5" height="7" transform="translate(1405.215 631.218)" fill="#ea544e"/>
    <path id="Path_8336" data-name="Path 8336" d="M-16660.582-6783.263h3.1l.832,4.06,3.682,3.055,4.275.818,4.264-1.766,2.533-3.157.807-3.01h3.023a2.273,2.273,0,0,0,1.488,3.01,14.938,14.938,0,0,0-1.488,3.687l-2.309-.529-2.676,3.23.381,2.11-3.385,1.105-1.2-1.811-4.416.294-1.3,1.517-3.283-1.517v-2.234l-3.242-3-1.76.306-.986-3.157Z" transform="translate(18069.551 7424.321)" fill="#ea544e" stroke="#d95e55" stroke-width="1"/>
  </g>
</svg>
