<svg id="Group_26825" data-name="Group 26825" xmlns="http://www.w3.org/2000/svg" width="60.828" height="58.197" viewBox="0 0 60.828 58.197">
  <path id="Path_3" data-name="Path 3" d="M60.665,33.047c-.469-1.442-1.869-2.434-3.841-2.72L41.183,28.053,34.188,13.88c-.882-1.787-2.258-2.812-3.774-2.812s-2.892,1.025-3.774,2.812L19.646,28.053,4,30.326C2.032,30.613.632,31.6.164,33.046S.245,36.113,1.672,37.5L12.99,48.537,10.318,64.115a4.623,4.623,0,0,0,.808,3.942,3.462,3.462,0,0,0,2.7,1.21,5.611,5.611,0,0,0,2.6-.715L30.414,61.2,44.4,68.551a5.613,5.613,0,0,0,2.6.715h0a3.462,3.462,0,0,0,2.7-1.21,4.623,4.623,0,0,0,.808-3.942L47.839,48.537,59.157,37.5C60.584,36.114,61.134,34.489,60.665,33.047Z" transform="translate(0 -11.068)" fill="#52e263"/>
</svg>
