<svg id="Group_2723" data-name="Group 2723" xmlns="http://www.w3.org/2000/svg" width="59.645" height="60.135" viewBox="0 0 59.645 60.135">
  <path id="Path_8491" data-name="Path 8491" d="M2137.094,565.772l-.445,3.184a25.007,25.007,0,0,0-4.342.575l-1.2-2.97a1.578,1.578,0,0,0-2.071-.859l-5.105,2.1a1.61,1.61,0,0,0-.889,2.081l1.21,3.008a25.781,25.781,0,0,0-3.494,2.668l-2.567-1.99a1.605,1.605,0,0,0-2.244.3l-3.43,4.388a1.6,1.6,0,0,0,.26,2.249l2.574,2a25.664,25.664,0,0,0-1.727,4.065l-3.266-.428a1.642,1.642,0,0,0-1.825,1.39l-.821,5.535a1.583,1.583,0,0,0,1.354,1.815l3.276.43a25.406,25.406,0,0,0,.493,4.394l-3.074,1.282a1.661,1.661,0,0,0-.909,2.13l2.048,5.2a1.585,1.585,0,0,0,2.1.88l3.076-1.288a25.271,25.271,0,0,0,2.635,3.548l-2.049,2.661a1.649,1.649,0,0,0,.266,2.3l4.394,3.447a1.612,1.612,0,0,0,2.277-.31l2.025-2.644a24.756,24.756,0,0,0,4.09,1.719l-.461,3.3a1.62,1.62,0,0,0,1.377,1.847l5.548.728a1.647,1.647,0,0,0,1.83-1.426l.448-3.275a24.977,24.977,0,0,0,4.433-.585l1.217,3.025a1.6,1.6,0,0,0,2.111.886l5.174-2.192a1.663,1.663,0,0,0,.881-2.151l-1.217-3a25.8,25.8,0,0,0,3.556-2.765l2.528,1.966a1.6,1.6,0,0,0,2.263-.308l3.388-4.491a1.647,1.647,0,0,0-.3-2.288l-2.506-1.942a25.662,25.662,0,0,0,1.7-4.178l3.133.411a1.609,1.609,0,0,0,1.8-1.4l.711-5.549a1.615,1.615,0,0,0-1.383-1.811l-3.123-.41a25.368,25.368,0,0,0-.576-4.438l2.9-1.213a1.611,1.611,0,0,0,.861-2.1l-2.116-5.115a1.592,1.592,0,0,0-2.084-.864l-2.914,1.215A25.223,25.223,0,0,0,2156.2,577l1.925-2.513a1.6,1.6,0,0,0-.292-2.235l-4.352-3.344a1.592,1.592,0,0,0-2.23.295l-1.937,2.516a24.734,24.734,0,0,0-4.057-1.66l.432-3.16a1.578,1.578,0,0,0-1.359-1.781l-5.437-.713A1.6,1.6,0,0,0,2137.094,565.772Zm-19.17,25.792a20.135,20.135,0,0,1,22.426-17.182,19.8,19.8,0,0,1,16.963,22.349,20.126,20.126,0,0,1-22.455,17.4A19.8,19.8,0,0,1,2117.924,591.564Z" transform="translate(-2107.692 -564.391)" fill="#d8dee8"/>
</svg>
