<svg id="Group_2724" data-name="Group 2724" xmlns="http://www.w3.org/2000/svg" width="92.218" height="92.978" viewBox="0 0 92.218 92.978">
  <path id="Path_8492" data-name="Path 8492" d="M1464.275,549.346l-.688,4.923a38.661,38.661,0,0,0-6.713.889l-1.861-4.592a2.44,2.44,0,0,0-3.2-1.328l-7.893,3.252a2.488,2.488,0,0,0-1.374,3.217l1.87,4.651a39.864,39.864,0,0,0-5.4,4.125l-3.969-3.076a2.482,2.482,0,0,0-3.47.459l-5.3,6.784a2.471,2.471,0,0,0,.4,3.477l3.98,3.094a39.639,39.639,0,0,0-2.67,6.286l-5.05-.662a2.538,2.538,0,0,0-2.821,2.15l-1.27,8.557a2.447,2.447,0,0,0,2.094,2.807l5.065.664a39.234,39.234,0,0,0,.762,6.794l-4.753,1.982a2.568,2.568,0,0,0-1.406,3.293l3.167,8.046a2.451,2.451,0,0,0,3.244,1.361l4.756-1.991a39.054,39.054,0,0,0,4.073,5.485l-3.168,4.115a2.55,2.55,0,0,0,.411,3.559l6.794,5.33a2.492,2.492,0,0,0,3.52-.48l3.131-4.088a38.241,38.241,0,0,0,6.323,2.658l-.713,5.1a2.5,2.5,0,0,0,2.13,2.855l8.577,1.125a2.547,2.547,0,0,0,2.829-2.2l.692-5.063a38.624,38.624,0,0,0,6.854-.9l1.881,4.678a2.471,2.471,0,0,0,3.265,1.37l8-3.389a2.571,2.571,0,0,0,1.363-3.326l-1.882-4.644a39.851,39.851,0,0,0,5.5-4.274l3.909,3.039a2.471,2.471,0,0,0,3.5-.477l5.239-6.944a2.546,2.546,0,0,0-.462-3.538l-3.874-3a39.662,39.662,0,0,0,2.629-6.46l4.844.635a2.488,2.488,0,0,0,2.781-2.167l1.1-8.58a2.5,2.5,0,0,0-2.137-2.8l-4.83-.633a39.256,39.256,0,0,0-.89-6.862l4.479-1.876a2.491,2.491,0,0,0,1.331-3.25l-3.272-7.909a2.462,2.462,0,0,0-3.222-1.336l-4.5,1.878a39.046,39.046,0,0,0-4.157-5.422l2.976-3.886a2.467,2.467,0,0,0-.451-3.456l-6.729-5.17a2.461,2.461,0,0,0-3.448.456l-3,3.891a38.208,38.208,0,0,0-6.272-2.567l.668-4.886a2.439,2.439,0,0,0-2.1-2.753l-8.407-1.1A2.48,2.48,0,0,0,1464.275,549.346Zm-29.64,39.879a31.132,31.132,0,0,1,34.674-26.567,30.617,30.617,0,0,1,26.227,34.555,31.119,31.119,0,0,1-34.72,26.9A30.605,30.605,0,0,1,1434.635,589.225Z" transform="translate(-1418.815 -547.211)" fill="#d8dee8"/>
</svg>
