<svg xmlns="http://www.w3.org/2000/svg" width="33.281" height="33.555" viewBox="0 0 33.281 33.555">
  <g id="Group_2723" data-name="Group 2723" transform="translate(0 0)">
    <path id="Path_8491" data-name="Path 8491" d="M2124.567,565.162l.248,1.776a13.956,13.956,0,0,1,2.423.321l.671-1.657a.881.881,0,0,1,1.156-.479l2.849,1.174a.9.9,0,0,1,.5,1.161l-.675,1.678a14.381,14.381,0,0,1,1.95,1.489l1.432-1.11a.9.9,0,0,1,1.252.166l1.914,2.448a.892.892,0,0,1-.145,1.255L2136.7,574.5a14.315,14.315,0,0,1,.963,2.268l1.823-.239a.916.916,0,0,1,1.018.776l.458,3.088a.883.883,0,0,1-.756,1.013l-1.828.24a14.17,14.17,0,0,1-.275,2.452l1.715.715a.927.927,0,0,1,.508,1.188l-1.143,2.9a.885.885,0,0,1-1.171.491l-1.716-.719a14.108,14.108,0,0,1-1.47,1.98l1.143,1.485a.92.92,0,0,1-.148,1.284l-2.452,1.923a.9.9,0,0,1-1.27-.173l-1.13-1.475a13.828,13.828,0,0,1-2.282.959l.257,1.841a.9.9,0,0,1-.769,1.03l-3.1.406a.919.919,0,0,1-1.021-.8l-.25-1.827a13.933,13.933,0,0,1-2.474-.326l-.679,1.688a.892.892,0,0,1-1.178.494l-2.887-1.223a.928.928,0,0,1-.492-1.2l.679-1.676a14.4,14.4,0,0,1-1.984-1.543l-1.411,1.1a.892.892,0,0,1-1.262-.172l-1.891-2.506a.919.919,0,0,1,.167-1.277l1.4-1.084a14.29,14.29,0,0,1-.949-2.331l-1.748.229a.9.9,0,0,1-1-.782l-.4-3.1a.9.9,0,0,1,.771-1.011l1.743-.229a14.142,14.142,0,0,1,.321-2.476l-1.617-.677a.9.9,0,0,1-.48-1.173l1.181-2.854a.888.888,0,0,1,1.163-.482l1.626.678a14.088,14.088,0,0,1,1.5-1.957l-1.074-1.4a.89.89,0,0,1,.163-1.247l2.429-1.866a.888.888,0,0,1,1.244.164l1.081,1.4a13.809,13.809,0,0,1,2.264-.927l-.241-1.763a.88.88,0,0,1,.758-.994l3.034-.4A.9.9,0,0,1,2124.567,565.162Zm10.7,14.392a11.235,11.235,0,0,0-12.513-9.588,11.049,11.049,0,0,0-9.465,12.47,11.23,11.23,0,0,0,12.53,9.709A11.045,11.045,0,0,0,2135.263,579.554Z" transform="translate(-2107.692 -564.391)" fill="#d8dee8"/>
  </g>
</svg>
