<svg xmlns="http://www.w3.org/2000/svg" width="51.457" height="51.881" viewBox="0 0 51.457 51.881">
  <g id="Group_2724" data-name="Group 2724" transform="translate(0 0)">
    <path id="Path_8492" data-name="Path 8492" d="M1444.906,548.4l.384,2.747a21.572,21.572,0,0,1,3.746.5l1.038-2.563a1.362,1.362,0,0,1,1.786-.741l4.4,1.815a1.388,1.388,0,0,1,.767,1.8l-1.044,2.6a22.241,22.241,0,0,1,3.014,2.3l2.215-1.716a1.385,1.385,0,0,1,1.936.256l2.959,3.786a1.378,1.378,0,0,1-.224,1.94l-2.221,1.727a22.13,22.13,0,0,1,1.49,3.507l2.818-.37a1.416,1.416,0,0,1,1.574,1.2l.708,4.775a1.366,1.366,0,0,1-1.168,1.566l-2.826.371a21.9,21.9,0,0,1-.425,3.791l2.652,1.106a1.433,1.433,0,0,1,.784,1.837l-1.767,4.49a1.368,1.368,0,0,1-1.81.76l-2.654-1.111a21.792,21.792,0,0,1-2.273,3.061l1.768,2.3a1.423,1.423,0,0,1-.229,1.986l-3.791,2.974a1.391,1.391,0,0,1-1.964-.268l-1.747-2.281a21.334,21.334,0,0,1-3.528,1.483l.4,2.847a1.4,1.4,0,0,1-1.189,1.593l-4.786.628a1.421,1.421,0,0,1-1.579-1.23l-.386-2.825a21.55,21.55,0,0,1-3.824-.5l-1.05,2.61a1.379,1.379,0,0,1-1.822.764L1432.576,596a1.434,1.434,0,0,1-.76-1.856l1.05-2.591a22.25,22.25,0,0,1-3.068-2.385l-2.181,1.7a1.379,1.379,0,0,1-1.952-.266l-2.923-3.875a1.421,1.421,0,0,1,.258-1.974l2.162-1.676a22.13,22.13,0,0,1-1.467-3.6l-2.7.354a1.388,1.388,0,0,1-1.552-1.209l-.613-4.787a1.393,1.393,0,0,1,1.193-1.562l2.695-.353a21.9,21.9,0,0,1,.5-3.829l-2.5-1.047a1.39,1.39,0,0,1-.743-1.813l1.826-4.413a1.374,1.374,0,0,1,1.8-.746l2.514,1.048a21.794,21.794,0,0,1,2.32-3.026l-1.661-2.168a1.377,1.377,0,0,1,.252-1.929l3.755-2.885a1.373,1.373,0,0,1,1.924.254l1.672,2.171a21.324,21.324,0,0,1,3.5-1.433l-.373-2.726a1.361,1.361,0,0,1,1.172-1.536l4.691-.615A1.384,1.384,0,0,1,1444.906,548.4Zm16.539,22.252a17.372,17.372,0,0,0-19.348-14.824,17.084,17.084,0,0,0-14.635,19.281,17.364,17.364,0,0,0,19.373,15.011A17.078,17.078,0,0,0,1461.445,570.655Z" transform="translate(-1418.815 -547.211)" fill="#d8dee8"/>
  </g>
</svg>
