<svg xmlns="http://www.w3.org/2000/svg" width="51.619" height="51.619" viewBox="0 0 51.619 51.619">
  <g id="handcuffs-svgrepo-com" transform="translate(25.81 0.354) rotate(45)">
    <path id="Path_1005" data-name="Path 1005" d="M134.43,207.841a1.8,1.8,0,1,0-1.8-1.8A1.8,1.8,0,0,0,134.43,207.841Zm0-2.271a.469.469,0,1,1-.469.469A.47.47,0,0,1,134.43,205.571Z" transform="translate(-122.158 -188.114)" stroke="#000" stroke-width="0.5"/>
    <path id="Path_1006" data-name="Path 1006" d="M206.041,132.628a1.8,1.8,0,1,0,1.8,1.8A1.8,1.8,0,0,0,206.041,132.628Zm0,2.271a.469.469,0,1,1,.469-.469A.469.469,0,0,1,206.041,134.9Z" transform="translate(-188.116 -122.157)" stroke="#000" stroke-width="0.5"/>
    <path id="Path_1007" data-name="Path 1007" d="M36,8.959a1.824,1.824,0,0,0-.534-1.291A8.959,8.959,0,0,0,21.48,1.608l-.016.011a2.008,2.008,0,0,1-.825.333l-4.24.665A2.4,2.4,0,0,0,14.365,5V8.434H14a1.618,1.618,0,0,0-3.062,0H9.579A1.147,1.147,0,0,0,8.433,9.58v1.355a1.618,1.618,0,0,0,0,3.062v.369H4.994A2.4,2.4,0,0,0,2.616,16.4L1.951,20.64a2.007,2.007,0,0,1-.332.825l-.012.016A8.942,8.942,0,0,0,7.667,35.466a1.826,1.826,0,0,0,2.581,0A8.961,8.961,0,0,0,17.917,26.6a10.66,10.66,0,0,0-2.084-5.835,1.209,1.209,0,0,0,.059-.6L15.3,16.4a2.4,2.4,0,0,0-2.379-2.035H9.483V14a1.618,1.618,0,0,0,0-3.062V9.58a.1.1,0,0,1,.1-.1h1.355a1.618,1.618,0,0,0,3.062,0h.369v3.438A2.4,2.4,0,0,0,16.4,15.3l3.767.591a1.23,1.23,0,0,0,.189.015,1.2,1.2,0,0,0,.411-.073A10.66,10.66,0,0,0,26.6,17.918a8.961,8.961,0,0,0,8.865-7.669A1.824,1.824,0,0,0,36,8.959ZM14.7,26.6a5.739,5.739,0,1,1-5.739-5.739A5.746,5.746,0,0,1,14.7,26.6ZM8.958,34.95a.779.779,0,1,1,.779-.779A.78.78,0,0,1,8.958,34.95Zm1.825-.654c0-.041,0-.083,0-.125a1.818,1.818,0,0,0-.273-.961,6.784,6.784,0,0,0,2.639-11.941c.41.07.816.153,1.2.249a1.222,1.222,0,0,0,.341.049,1.2,1.2,0,0,0,.374-.06,9.647,9.647,0,0,1,1.8,5.1A7.912,7.912,0,0,1,10.783,34.3Zm3.48-17.732.591,3.765a.152.152,0,0,1-.039.132.158.158,0,0,1-.169.047l-.024-.007a39.083,39.083,0,0,0-5.663-.69A6.789,6.789,0,0,0,7.4,33.21a1.818,1.818,0,0,0-.274.961c0,.043,0,.085,0,.127A7.91,7.91,0,0,1,2.462,22.091l.009-.012h0A3.065,3.065,0,0,0,2.989,20.8l.665-4.239a1.351,1.351,0,0,1,1.341-1.148h7.928A1.351,1.351,0,0,1,14.263,16.564Zm-5.3-3.528a.57.57,0,1,1,.57-.57A.57.57,0,0,1,8.958,13.036Zm3.507-3.507a.57.57,0,1,1,.57-.57A.57.57,0,0,1,12.465,9.529Zm22.484-.57a.779.779,0,1,1-.779-.779A.78.78,0,0,1,34.949,8.959Zm-14.62,5.9-3.766-.591a1.351,1.351,0,0,1-1.148-1.341V5a1.351,1.351,0,0,1,1.147-1.341l4.24-.665a3.064,3.064,0,0,0,1.275-.518h0l.011-.008A7.891,7.891,0,0,1,34.3,7.134c-.042,0-.084,0-.127,0a1.818,1.818,0,0,0-.961.274,6.789,6.789,0,0,0-13.4,1.556,39.08,39.08,0,0,0,.69,5.663l.007.024a.173.173,0,0,1,.008.05.162.162,0,0,1-.057.12A.15.15,0,0,1,20.329,14.854Zm.533-5.9A5.739,5.739,0,1,1,26.6,14.7,5.746,5.746,0,0,1,20.862,8.959ZM26.6,16.867a9.647,9.647,0,0,1-5.1-1.8,1.2,1.2,0,0,0,.06-.374,1.223,1.223,0,0,0-.049-.341c-.1-.386-.179-.793-.249-1.2a6.784,6.784,0,0,0,11.941-2.639,1.818,1.818,0,0,0,.961.274c.042,0,.084,0,.125,0A7.911,7.911,0,0,1,26.6,16.867Z" transform="translate(0 0)" stroke="#000" stroke-width="0.5"/>
  </g>
</svg>
