<svg xmlns="http://www.w3.org/2000/svg" width="32.584" height="44.202" viewBox="0 0 32.584 44.202">
  <g id="hand-holding-money-bills-svgrepo-com" transform="translate(-16.425)">
    <g id="Group_1896" data-name="Group 1896" transform="translate(16.425 0)">
      <path id="Path_1010" data-name="Path 1010" d="M47.972,30.987c.908-1.843.968-4.064-.6-5.5.709-2.087.125-4.707-1.984-5.482a4.95,4.95,0,0,0-.208-3.887,3.213,3.213,0,0,0-3.005-1.285,28.954,28.954,0,0,1,5.561-8.379l.346-.336-.291-.384c-.2-.263-4.94-6.424-10.966-4.559L36.4,1.3l.033.434c.008.11.784,10.79-1.473,15.554l-.609.328a22.835,22.835,0,0,0-1.217-3.031,35.168,35.168,0,0,0-4.56-7.848c.97-.853.476-2.253.109-2.991a10.171,10.171,0,0,1,5.384-2.611A3.169,3.169,0,0,0,35.69,3.119c-.034-.8-.069-1.281-.071-1.3L35.553.948,36.384.69a8.525,8.525,0,0,1,.977-.234l-.34-.105c-6.027-1.865-10.768,4.3-10.967,4.559l-.291.384.345.336a29.711,29.711,0,0,1,5.8,8.9c-3.675,1.258-5.014,4.432-6.2,7.232-.82,1.945-1.538,3.643-2.869,4.292l-.044-.135-.41-1.26L16.425,26.6l5.736,17.6,5.962-1.942L27.778,41.2c5.406-1.569,11.036-2.178,16.505-3.482,1.68-.4,3.426-.8,4.353-2.367C49.425,34.016,48.849,32.2,47.972,30.987Zm-28.3-1.556L19.1,27.689l1.741-.567.568,1.742ZM37.4,11.641a2.68,2.68,0,0,0,1.529,1.7c1.223.566,2.556.288,2.977-.624s-.227-2.108-1.449-2.674a2.211,2.211,0,0,0-2.964.6,61.008,61.008,0,0,0,.143-6.606c1.228,0,1.876-1.359,2.13-2.068a10.176,10.176,0,0,1,5.384,2.611c-.367.738-.862,2.138.109,2.991A34.558,34.558,0,0,0,40.9,14.975a17.242,17.242,0,0,0-4.468,1.566A23.8,23.8,0,0,0,37.4,11.641ZM31.986,14.7l-.008.011-.041-.121Zm14.3,20.205c-1.422.881-3.477,1.124-5.081,1.449-4.545.922-9.528,1.526-13.988,2.824L23.516,28.094c2.068-.861,3.32-3.275,4.22-5.409,1.016-2.408,2.07-4.892,4.7-5.89a22.331,22.331,0,0,1,.81,2.481.747.747,0,0,0,1.109.387,23,23,0,0,1,6.847-2.83c.017.006.035.01.052.017,0-.009.008-.019.012-.028.041-.007.081-.015.121-.021.733-.113,1.921-.188,2.295.639a3.3,3.3,0,0,1,.05,2,9.314,9.314,0,0,1-.3,1.037.746.746,0,0,0,.5,1.056c1.943.23,2.221,2.436,1.489,3.942a.735.735,0,0,0,.167.886c1.538,1.086,1.283,2.807.428,4.275a.714.714,0,0,0,.042.742C46.9,32.346,47.692,34.041,46.29,34.909Z" transform="translate(-16.425 0)"/>
      <path id="Path_1011" data-name="Path 1011" d="M61.481,25.523c-1.222.567-1.872,1.764-1.449,2.674s1.755,1.19,2.977.624a3.22,3.22,0,0,0,.514-.3c.126-1.007.208-2.045.259-3.058A2.667,2.667,0,0,0,61.481,25.523Z" transform="translate(-44.526 -16.307)"/>
    </g>
  </g>
</svg>
