<svg xmlns="http://www.w3.org/2000/svg" width="36" height="36" viewBox="0 0 36 36">
  <path id="Icon_metro-suitcase" data-name="Icon metro-suitcase" d="M37.832,41.784H7.165A2.78,2.78,0,0,1,4.5,38.9V21.624a64.989,64.989,0,0,0,13.333,5.449v1.751a1.388,1.388,0,0,0,1.333,1.44h6.667a1.389,1.389,0,0,0,1.333-1.44V27.073A65.026,65.026,0,0,0,40.5,21.624V38.9A2.781,2.781,0,0,1,37.832,41.784ZM24.5,24.5a1.389,1.389,0,0,1,1.333,1.44v1.44a1.389,1.389,0,0,1-1.333,1.44h-4a1.388,1.388,0,0,1-1.333-1.44v-1.44A1.388,1.388,0,0,1,20.5,24.5Zm2.667,0a1.389,1.389,0,0,0-1.333-1.44H19.165a1.388,1.388,0,0,0-1.333,1.44v1.29A64.035,64.035,0,0,1,4.5,20.184v-5.76a2.78,2.78,0,0,1,2.667-2.88h8V8.664a2.781,2.781,0,0,1,2.667-2.88h9.333a2.781,2.781,0,0,1,2.667,2.88v2.88h8a2.781,2.781,0,0,1,2.667,2.88v5.76a64.072,64.072,0,0,1-13.333,5.61V24.5Zm0-14.4a1.389,1.389,0,0,0-1.333-1.44H19.165a1.388,1.388,0,0,0-1.333,1.44v1.44h9.333Z" transform="translate(-4.499 -5.784)"/>
</svg>
