<svg xmlns="http://www.w3.org/2000/svg" width="36" height="23.051" viewBox="0 0 36 23.051">
  <path id="Icon_payment-cash" data-name="Icon payment-cash" d="M42.449,17.5V38.254a1.446,1.446,0,0,1-.352.809,1.174,1.174,0,0,1-.844.337H7.644a1.171,1.171,0,0,1-.844-.337,1.44,1.44,0,0,1-.352-.809V17.5a1.444,1.444,0,0,1,.352-.809,1.176,1.176,0,0,1,.844-.337H41.254a1.179,1.179,0,0,1,.844.337,1.451,1.451,0,0,1,.352.809ZM40.059,32.458V23.292a4.7,4.7,0,0,1-3.375-1.348,4.394,4.394,0,0,1-1.406-3.3H13.621a4.4,4.4,0,0,1-1.406,3.3A4.7,4.7,0,0,1,8.84,23.292v9.166a4.708,4.708,0,0,1,3.375,1.348,4.4,4.4,0,0,1,1.406,3.3H35.277a4.4,4.4,0,0,1,1.406-3.3,4.707,4.707,0,0,1,3.375-1.348Zm-9.633-4.583a11.35,11.35,0,0,1-.352,2.561,8.466,8.466,0,0,1-1.125,2.426,5.99,5.99,0,0,1-1.9,1.82,5.357,5.357,0,0,1-5.2,0,5.97,5.97,0,0,1-1.9-1.82,8.444,8.444,0,0,1-1.125-2.426,11.3,11.3,0,0,1-.352-2.561,11.306,11.306,0,0,1,.352-2.561,8.44,8.44,0,0,1,1.125-2.426,5.989,5.989,0,0,1,1.9-1.82,5.356,5.356,0,0,1,5.2,0,6.02,6.02,0,0,1,1.9,1.82,8.469,8.469,0,0,1,1.125,2.426,11.339,11.339,0,0,1,.352,2.561Zm-9.562,4.583h7.172V30.773H25.644V22.685H23.535l-2.813,2.494L22.2,26.594a11.227,11.227,0,0,0,.985-1.011h.07v5.19H20.863v1.685Z" transform="translate(-6.449 -16.35)"/>
</svg>
