<svg xmlns="http://www.w3.org/2000/svg" width="23.285" height="29.441" viewBox="0 0 23.285 29.441">
  <g id="discount-percentage" transform="translate(-2 -1)">
    <path id="Path_8769" data-name="Path 8769" d="M3,3.372a2.724,2.724,0,0,0,4.73,0A2.033,2.033,0,0,1,9.5,2a2.033,2.033,0,0,1,1.774,1.372,2.724,2.724,0,0,0,4.73,0A2.033,2.033,0,0,1,17.781,2a2.033,2.033,0,0,1,1.774,1.372,2.724,2.724,0,0,0,4.73,0v24.7a2.724,2.724,0,0,0-4.73,0,2.033,2.033,0,0,1-1.774,1.372,2.033,2.033,0,0,1-1.774-1.372,2.724,2.724,0,0,0-4.73,0A2.033,2.033,0,0,1,9.5,29.441,2.033,2.033,0,0,1,7.73,28.069a2.724,2.724,0,0,0-4.73,0Z" transform="translate(0 0)" fill="none" stroke="#fff" stroke-linecap="round" stroke-linejoin="round" stroke-width="2"/>
    <circle id="Ellipse_610" data-name="Ellipse 610" cx="1.561" cy="1.561" r="1.561" transform="translate(7.397 10.46)" fill="none" stroke="#fff" stroke-linecap="round" stroke-linejoin="round" stroke-width="2"/>
    <circle id="Ellipse_611" data-name="Ellipse 611" cx="1.561" cy="1.561" r="1.561" transform="translate(16.765 19.709)" fill="none" stroke="#fff" stroke-linecap="round" stroke-linejoin="round" stroke-width="2"/>
    <path id="Path_8770" data-name="Path 8770" d="M18.643,8,8,17.46" transform="translate(0.913 2.991)" fill="none" stroke="#fff" stroke-linecap="round" stroke-linejoin="round" stroke-width="2"/>
  </g>
</svg>
