<svg xmlns="http://www.w3.org/2000/svg" width="130" height="130" viewBox="0 0 130 130">
  <g id="Group_26710" data-name="Group 26710" transform="translate(-659 -2060)">
    <rect id="Rectangle_28493" data-name="Rectangle 28493" width="130" height="130" rx="65" transform="translate(659 2060)" fill="#cc192e"/>
    <path id="Icon_metro-calendar" data-name="Icon metro-calendar" d="M19.027,21.675h6.582v6.582H19.027Zm9.874,0h6.582v6.582H28.9Zm9.874,0h6.582v6.582H38.774ZM9.153,41.423h6.582V48H9.153Zm9.874,0h6.582V48H19.027Zm9.874,0h6.582V48H28.9Zm-9.874-9.874h6.582v6.582H19.027Zm9.874,0h6.582v6.582H28.9Zm9.874,0h6.582v6.582H38.774Zm-29.621,0h6.582v6.582H9.153Zm36.2-29.621V5.219H38.774V1.928H15.736V5.219H9.153V1.928H2.571V54.587H51.939V1.928H45.357ZM48.648,51.3H5.862v-36.2H48.648Z" transform="translate(696.43 2097.072)" fill="#fcfafa"/>
  </g>
</svg>
