<svg xmlns="http://www.w3.org/2000/svg" width="130" height="130" viewBox="0 0 130 130">
  <g id="Group_26711" data-name="Group 26711" transform="translate(-1699 -2060)">
    <rect id="Rectangle_28494" data-name="Rectangle 28494" width="130" height="130" rx="65" transform="translate(1699 2060)" fill="#cc192e"/>
    <path id="Icon_awesome-transgender-alt" data-name="Icon awesome-transgender-alt" d="M56.172,0H46.69a1.443,1.443,0,0,0-1.02,2.461L47.7,4.489l-9.686,9.686a17.3,17.3,0,0,0-18.412,0l-1.98-1.98L20,9.818a1.442,1.442,0,0,0,0-2.04l-3.4-3.4a1.442,1.442,0,0,0-2.04,0L12.183,6.757,9.9,4.477l2.028-2.028A1.427,1.427,0,0,0,10.922,0H1.44A1.445,1.445,0,0,0,0,1.44v9.482a1.443,1.443,0,0,0,2.461,1.02L4.489,9.914l2.28,2.28L4.393,14.571a1.442,1.442,0,0,0,0,2.04l3.4,3.4a1.442,1.442,0,0,0,2.04,0l2.377-2.377,1.98,1.98a17.034,17.034,0,0,0-2.665,9.194A17.287,17.287,0,0,0,24.965,45.658V48.97H20.644a1.445,1.445,0,0,0-1.44,1.44v4.8a1.445,1.445,0,0,0,1.44,1.44h4.321v3.361a1.445,1.445,0,0,0,1.44,1.44h4.8a1.445,1.445,0,0,0,1.44-1.44V56.652h4.321a1.445,1.445,0,0,0,1.44-1.44v-4.8a1.445,1.445,0,0,0-1.44-1.44H32.647V45.658A17.288,17.288,0,0,0,43.437,19.6l9.686-9.686,2.028,2.028a1.44,1.44,0,0,0,2.461-1.02V1.44A1.445,1.445,0,0,0,56.172,0ZM28.806,38.408a9.6,9.6,0,1,1,9.6-9.6A9.615,9.615,0,0,1,28.806,38.408Z" transform="translate(1737.193 2097)" fill="#fcfafa"/>
  </g>
</svg>
