<svg id="Group_26607" data-name="Group 26607" xmlns="http://www.w3.org/2000/svg" width="40.087" height="52.081" viewBox="0 0 40.087 52.081">
  <path id="Path_30736" data-name="Path 30736" d="M305.635,141.012a3.454,3.454,0,0,1-.529-3.025l3.29-10.948a12.15,12.15,0,0,1,23.277,0l3.309,10.929a3.4,3.4,0,0,1-2.288,4.255,3.548,3.548,0,0,1-.983.151H308.377A3.4,3.4,0,0,1,305.635,141.012Zm34.453,26.019a3.422,3.422,0,0,1-3.423,3.423H303.422A3.422,3.422,0,0,1,300,167.031a20.044,20.044,0,1,1,40.087,0Z" transform="translate(-300 -118.373)"/>
</svg>
