<svg xmlns="http://www.w3.org/2000/svg" width="130" height="130" viewBox="0 0 130 130">
  <g id="Group_26712" data-name="Group 26712" transform="translate(-1699 -2060)">
    <rect id="Rectangle_28494" data-name="Rectangle 28494" width="130" height="130" rx="65" transform="translate(1699 2060)" fill="#cc192e"/>
    <path id="Icon_awesome-user-friends" data-name="Icon awesome-user-friends" d="M23.045,29.136A13.443,13.443,0,1,0,9.6,15.693,13.436,13.436,0,0,0,23.045,29.136Zm9.218,3.841h-1a18.56,18.56,0,0,1-16.444,0h-1A13.831,13.831,0,0,0,0,46.8V50.26a5.763,5.763,0,0,0,5.761,5.761H40.329A5.763,5.763,0,0,0,46.09,50.26V46.8A13.831,13.831,0,0,0,32.263,32.976Zm25.349-3.841A11.522,11.522,0,1,0,46.09,17.613,11.525,11.525,0,0,0,57.612,29.136Zm5.761,3.841h-.456a15.136,15.136,0,0,1-10.61,0h-.456a13.331,13.331,0,0,0-6.685,1.848A17.565,17.565,0,0,1,49.931,46.8v4.609c0,.264-.06.516-.072.768h21.2a5.763,5.763,0,0,0,5.761-5.761A13.436,13.436,0,0,0,63.374,32.976Z" transform="translate(1725 2093.75)" fill="#fcfafa"/>
  </g>
</svg>
