<svg xmlns="http://www.w3.org/2000/svg" width="20.711" height="20.449" viewBox="0 0 51.711 45.449">
  <g id="Group_2451" data-name="Group 2451" transform="translate(20372.77 14602.969)">
    <path id="Icon_feather-thumbs-up" data-name="Icon feather-thumbs-up" d="M11.921,18.1v4.645A3.484,3.484,0,0,0,15.4,26.224l4.645-10.451V3H6.951A2.322,2.322,0,0,0,4.629,4.974l-1.6,10.451A2.322,2.322,0,0,0,5.349,18.1ZM20.049,3h3.484a2.322,2.322,0,0,1,2.322,2.322v8.128a2.322,2.322,0,0,1-2.322,2.322H20.049" transform="translate(-20348.414 -14585.244)" fill="none" stroke="#fff" stroke-linecap="round" stroke-linejoin="round" stroke-width="3"/>
    <path id="Icon_feather-thumbs-up-2" data-name="Icon feather-thumbs-up" d="M16.934,11.129V6.484A3.484,3.484,0,0,0,13.451,3L8.806,13.451V26.224H21.9a2.322,2.322,0,0,0,2.322-1.974l1.6-10.451a2.322,2.322,0,0,0-2.322-2.671Zm-8.128,15.1H5.322A2.322,2.322,0,0,1,3,23.9V15.773a2.322,2.322,0,0,1,2.322-2.322H8.806" transform="translate(-20374.27 -14604.469)" fill="none" stroke="#fff" stroke-linecap="round" stroke-linejoin="round" stroke-width="3"/>
  </g>
</svg>
