<svg xmlns="http://www.w3.org/2000/svg" width="26.736" height="35.648" viewBox="0 0 26.736 35.648">
  <path id="Icon_ionic-md-bulb" data-name="Icon ionic-md-bulb" d="M15.3,38.292a1.862,1.862,0,0,0,1.857,1.857h8.169a1.862,1.862,0,0,0,1.857-1.857V36.621H15.3ZM21.243,4.5c-7.4,0-13.368,5.561-13.368,12.44a12.277,12.277,0,0,0,5.7,10.267v4.029a1.856,1.856,0,0,0,1.912,1.782h11.5A1.85,1.85,0,0,0,28.9,31.236V27.207A12.264,12.264,0,0,0,34.611,16.94C34.611,10.061,28.642,4.5,21.243,4.5Z" transform="translate(-7.875 -4.5)" fill="#fff"/>
</svg>
