<svg xmlns="http://www.w3.org/2000/svg" width="20.18" height="20.181" viewBox="0 0 26.18 26.181">
  <path id="Icon_awesome-thumbs-down" data-name="Icon awesome-thumbs-down" d="M0,2.864V15.136a1.227,1.227,0,0,0,1.227,1.227H5.318a1.227,1.227,0,0,0,1.227-1.227V2.864A1.227,1.227,0,0,0,5.318,1.636H1.227A1.227,1.227,0,0,0,0,2.864ZM2.045,13.09a1.227,1.227,0,1,1,1.227,1.227A1.227,1.227,0,0,1,2.045,13.09Zm13.908,13.09c-1.032,0-1.508-2.009-1.735-2.955a6.193,6.193,0,0,0-1.3-3.012c-1.66-1.663-2.531-3.782-4.557-5.784a.613.613,0,0,1-.182-.436V3.063a.614.614,0,0,1,.6-.614,8.046,8.046,0,0,0,2.692-.827A14.679,14.679,0,0,1,17.59,0h.145c2.187,0,4.774.021,5.818,1.521A2.715,2.715,0,0,1,23.867,3.8a4.044,4.044,0,0,1,.838,3.823,4.272,4.272,0,0,1,.476,4.064l.006.006a3.7,3.7,0,0,1,.994,2.516,3.055,3.055,0,0,1-3.045,2.971h-5.2c.374,1.449,1.7,2.666,1.7,4.835C19.635,25.772,17.181,26.181,15.954,26.181Z" fill="#eb4a59"/>
</svg>
