<svg xmlns="http://www.w3.org/2000/svg" width="21.32" height="21.32" viewBox="0 0 21.32 21.32">
  <path id="Icon_awesome-plus-circle" data-name="Icon awesome-plus-circle" d="M11.222.563a10.66,10.66,0,1,0,10.66,10.66A10.658,10.658,0,0,0,11.222.563Zm6.19,11.864a.517.517,0,0,1-.516.516H12.942V16.9a.517.517,0,0,1-.516.516H10.019A.517.517,0,0,1,9.5,16.9V12.942H5.549a.517.517,0,0,1-.516-.516V10.019A.517.517,0,0,1,5.549,9.5H9.5V5.549a.517.517,0,0,1,.516-.516h2.407a.517.517,0,0,1,.516.516V9.5H16.9a.517.517,0,0,1,.516.516Z" transform="translate(-0.563 -0.563)" fill="#00bc89"/>
</svg>
