<svg xmlns="http://www.w3.org/2000/svg" width="29.721" height="43.319" viewBox="0 0 29.721 43.319">
  <g id="Group_2312" data-name="Group 2312" transform="translate(-1720.804 -576.827)">
    <g id="analytics_report_analysis_document_data_study_icon_143867" transform="translate(1655.432 531.28)">
      <path id="Path_8359" data-name="Path 8359" d="M203.259,162.917A12.852,12.852,0,0,0,216.1,150.082a.922.922,0,0,0-.922-.922H204.181v-11a.922.922,0,0,0-.922-.922,12.839,12.839,0,1,0,0,25.677Zm-.923-23.794v10.96a.923.923,0,0,0,.923.923h10.956a10.994,10.994,0,1,1-11.88-11.878Z" transform="translate(-125.047 -87.619)" fill="#ea544e"/>
      <path id="Path_8360" data-name="Path 8360" d="M287.982,126.331H299.9a.922.922,0,0,0,.923-.922,12.854,12.854,0,0,0-12.839-12.839.922.922,0,0,0-.922.922v11.918a.922.922,0,0,0,.922.922Zm.922-11.873a11.013,11.013,0,0,1,10.038,10.028H288.9Z" transform="translate(-205.727 -67.023)" fill="#ea544e"/>
      <path id="Path_8361" data-name="Path 8361" d="M191.342,342.593h23.833a.922.922,0,1,0,0-1.843H191.342a.922.922,0,1,0,0,1.843Z" transform="translate(-125.047 -261.518)" fill="#ea544e"/>
      <path id="Path_8362" data-name="Path 8362" d="M319.419,376.44h-3.249a.923.923,0,0,0,0,1.845h3.249a.923.923,0,0,0,0-1.845Z" transform="translate(-229.292 -293.314)" fill="#ea544e"/>
      <path id="Path_8363" data-name="Path 8363" d="M191.53,378.285h14.018a.923.923,0,0,0,0-1.845H191.53a.923.923,0,0,0,0,1.845Z" transform="translate(-125.236 -293.314)" fill="#ea544e"/>
      <path id="Path_8364" data-name="Path 8364" d="M275.418,412.14H263.5a.922.922,0,1,0,0,1.843h11.916a.922.922,0,0,0,0-1.843Z" transform="translate(-185.29 -325.118)" fill="#ea544e"/>
      <path id="Path_8365" data-name="Path 8365" d="M191.342,413.983h5.263a.922.922,0,0,0,0-1.843h-5.263a.922.922,0,0,0,0,1.843Z" transform="translate(-125.047 -325.118)" fill="#ea544e"/>
    </g>
    <path id="Path_8366" data-name="Path 8366" d="M-19472.4-9798.565v11.746h11.912v3.32l-3.264,5.167-6.768,2.743-8.307-2.743-4.365-7.879,1.41-7.259,5.992-5.1h2.729" transform="translate(21205 10381)" fill="#ea544e" stroke="#ea544e" stroke-width="1"/>
  </g>
</svg>
