<svg xmlns="http://www.w3.org/2000/svg" width="21.829" height="23.229" viewBox="0 0 20.829 21.229">
  <g id="Group_2794" data-name="Group 2794" transform="translate(-14257.027 -12916.427)">
    <path id="winner" d="M20.882,11.148H15.517V8.733a1.1,1.1,0,0,0-.947-1.207H8.259a1.1,1.1,0,0,0-.947,1.207V14.77H1.947A1.1,1.1,0,0,0,1,15.978v7.245a1.1,1.1,0,0,0,.947,1.207H20.882a1.1,1.1,0,0,0,.947-1.207V12.355A1.1,1.1,0,0,0,20.882,11.148ZM7.312,22.015H2.894v-4.83H7.312Zm6.311-9.659v9.659H9.206V9.94h4.418Zm6.312,9.659H15.517V13.563h4.419Z" transform="translate(14256.027 12913.227)" fill="#fff"/>
    <path id="winner-2" data-name="winner" d="M6.206,3.17l-1.578,1.3.493,2.209L3.366,5.419,1.611,6.681,2.1,4.472.526,3.17l1.894-.276L3.366,1l.947,1.894Z" transform="translate(14256.502 12915.427)" fill="#fff"/>
  </g>
</svg>
